<?xml version="1.0" encoding="UTF-8"?>
<svg width="176px" height="176px" viewBox="0 0 176 176" version="1.1" xmlns="http://www.w3.org/2000/svg" xmlns:xlink="http://www.w3.org/1999/xlink">
    <!-- Generator: Sketch 42 (36781) - http://www.bohemiancoding.com/sketch -->
    <title>Favicon</title>
    <desc>Created with Sketch.</desc>
    <defs></defs>
    <g id="Page-1" stroke="none" stroke-width="1" fill="none" fill-rule="evenodd">
        <g id="Favicon">
            <g id="Group-2" transform="translate(9.000000, 6.000000)" fill="#4DB7FB">
                <path d="M112.711765,0 L139.003439,0 C150.047235,0 159,8.96076054 159,20.0019954 L159,48.0453309 L146,48.0453309 L146,21.4655849 C146,17.6057895 142.864339,14.4669084 138.996305,14.4669084 L112.711765,14.4669084 L112.711765,0 Z M42.7117647,0 L19.9965606,0 C8.94658258,0 0,8.95519838 0,20.0019954 L0,48.0453309 L14,48.0453309 L14,21.4655849 C14,17.6003226 17.1327448,14.4669084 21.0036954,14.4669084 L42.7117647,14.4669084 L42.7117647,9.54791801e-15 Z M112.711765,163.958296 L139.003439,163.958296 C150.053417,163.958296 159,155.003097 159,143.9563 L159,118.045331 L146,118.045331 L146,142.492711 C146,146.357973 142.867255,149.491387 138.996305,149.491387 L112.711765,149.491387 L112.711765,163.958296 Z M42.7117647,163.958296 L19.9965606,163.958296 C8.95276513,163.958296 0,154.997535 0,143.9563 L0,118.045331 L14,118.045331 L14,142.492711 C14,146.352506 17.1356612,149.491387 21.0036954,149.491387 L42.7117647,149.491387 L42.7117647,163.958296 Z" id="Combined-Shape"></path>
            </g>
            <text id="QR" font-family="FiraCode-Retina, Fira Code" font-size="100" font-weight="500" fill="#4CB7FB">
                <tspan x="26" y="111">QR</tspan>
            </text>
            <text id="me" font-family="FiraCode-Retina, Fira Code" font-size="50" font-weight="500" fill="#474747">
                <tspan x="92" y="146">me</tspan>
            </text>
        </g>
    </g>
</svg>