<?xml version="1.0" encoding="UTF-8"?>
<svg width="244px" height="243px" viewBox="0 0 244 243" version="1.1" xmlns="http://www.w3.org/2000/svg" xmlns:xlink="http://www.w3.org/1999/xlink">
    <!-- Generator: Sketch 42 (36781) - http://www.bohemiancoding.com/sketch -->
    <title>Group 45</title>
    <desc>Created with Sketch.</desc>
    <defs></defs>
    <g id="Page-1" stroke="none" stroke-width="1" fill="none" fill-rule="evenodd">
        <g id="Group-45">
            <polygon id="Fill-34" fill="#DEDB97" points="0.695 243 243.695 243 243.695 0 0.695 0"></polygon>
            <path d="M190.0704,204.675 C190.0704,206.552 159.6814,208.074 122.1954,208.074 C84.7094,208.074 54.3204,206.552 54.3204,204.675 C54.3204,202.798 84.7094,201.276 122.1954,201.276 C159.6814,201.276 190.0704,202.798 190.0704,204.675" id="Fill-36" fill="#353842"></path>
            <path d="M204.7658,119.8004 C204.7658,165.0184 168.1088,201.6754 122.8908,201.6754 C77.6728,201.6754 41.0158,165.0184 41.0158,119.8004 C41.0158,74.5824 77.6728,37.9254 122.8908,37.9254 C168.1088,37.9254 204.7658,74.5824 204.7658,119.8004" id="Fill-37" fill="#FEFEFE"></path>
            <path d="M204.0704,119.8004 C204.0704,165.0184 167.4134,201.6754 122.1954,201.6754 C76.9774,201.6754 40.3204,165.0184 40.3204,119.8004 C40.3204,143.6224 76.9774,183.5744 122.1954,183.5744 C167.4134,183.5744 204.0704,144.5664 204.0704,119.8004" id="Fill-38" fill="#F8F5D7"></path>
            <path d="M122.1954,40.9255 C78.7034,40.9255 43.3204,76.3085 43.3204,119.8005 C43.3204,163.2925 78.7034,198.6755 122.1954,198.6755 C165.6874,198.6755 201.0704,163.2925 201.0704,119.8005 C201.0704,76.3085 165.6874,40.9255 122.1954,40.9255 M122.1954,204.6755 C75.3954,204.6755 37.3204,166.6005 37.3204,119.8005 C37.3204,73.0005 75.3954,34.9255 122.1954,34.9255 C168.9954,34.9255 207.0704,73.0005 207.0704,119.8005 C207.0704,166.6005 168.9954,204.6755 122.1954,204.6755" id="Fill-39" fill="#353842"></path>
            <path d="M121.593,153.8463 C115.062,153.8463 111.547,146.1783 111.168,145.3043 C110.671,144.1573 110.977,142.8213 111.924,142.0053 C112.87,141.1903 114.236,141.0853 115.297,141.7473 C115.309,141.7543 117.793,143.2463 120.717,143.2463 C124.035,143.2463 128.228,141.5453 128.27,141.5283 C129.342,141.0893 130.573,141.3413 131.386,142.1663 C132.198,142.9903 132.433,144.2243 131.979,145.2893 C131.605,146.1643 128.135,153.8463 121.593,153.8463" id="Fill-40" fill="#353842"></path>
            <path d="M162.5005,117.2029 C162.9025,117.7679 163.6665,117.8849 164.2525,117.5149 C165.1955,116.9209 166.3085,116.5749 167.5055,116.5749 C168.7015,116.5749 169.8155,116.9209 170.7575,117.5149 C171.3455,117.8849 172.1105,117.7669 172.5125,117.1999 C173.4505,115.8779 173.8785,114.1709 173.5015,112.3559 C173.0175,110.0339 171.1435,108.1549 168.8215,107.6719 C164.8595,106.8489 161.3725,109.8509 161.3725,113.6679 C161.3725,114.9859 161.7915,116.2049 162.5005,117.2029" id="Fill-41" fill="#353842"></path>
            <path d="M70.1911,117.2029 C70.5931,117.7679 71.3571,117.8849 71.9431,117.5149 C72.8861,116.9209 73.9991,116.5749 75.1961,116.5749 C76.3921,116.5749 77.5061,116.9209 78.4481,117.5149 C79.0361,117.8849 79.8011,117.7669 80.2031,117.1999 C81.1411,115.8779 81.5691,114.1709 81.1921,112.3559 C80.7081,110.0339 78.8341,108.1549 76.5121,107.6719 C72.5501,106.8489 69.0631,109.8509 69.0631,113.6679 C69.0631,114.9859 69.4821,116.2049 70.1911,117.2029" id="Fill-42" fill="#353842"></path>
            <path d="M162.2861,71.0622 C165.9241,73.9502 168.5551,76.4902 170.6191,81.8522" id="Stroke-43" stroke="#F8F6D9" stroke-width="7" stroke-linecap="round" stroke-linejoin="round"></path>
            <path d="M146.9155,62.0325 C146.9155,62.0325 149.7775,63.1735 153.0465,64.6165" id="Stroke-44" stroke="#F8F6D9" stroke-width="7" stroke-linecap="round" stroke-linejoin="round"></path>
            <path d="M58.52,100.2202 C58.092,101.1492 58.42,102.2722 59.315,102.8162 C60.278,103.4012 61.532,103.0952 62.117,102.1322 C64.795,97.7202 68.136,95.2342 72.047,94.7452 C74.86,94.3922 76.939,95.2292 76.96,95.2382 C77.977,95.6672 79.146,95.2102 79.605,94.2152 C79.614,94.1942 79.624,94.1742 79.632,94.1532 C80.07,93.1162 79.584,91.9192 78.547,91.4802 C78.429,91.4312 66.727,86.6752 58.629,100.0132 C58.588,100.0812 58.552,100.1502 58.52,100.2202" id="Fill-122" fill="#353842"></path>
            <path d="M183.1906,100.3157 C183.6186,101.2447 183.2906,102.3677 182.3956,102.9117 C181.4326,103.4967 180.1786,103.1907 179.5936,102.2277 C176.9156,97.8157 173.5746,95.3297 169.6636,94.8407 C166.8506,94.4877 164.7716,95.3247 164.7506,95.3337 C163.7336,95.7627 162.5646,95.3057 162.1056,94.3107 C162.0966,94.2897 162.0866,94.2697 162.0786,94.2487 C161.6406,93.2117 162.1266,92.0147 163.1636,91.5757 C163.2816,91.5267 174.9836,86.7707 183.0816,100.1087 C183.1226,100.1767 183.1586,100.2457 183.1906,100.3157" id="Fill-124" fill="#353842"></path>
        </g>
    </g>
</svg>