<?xml version="1.0" encoding="UTF-8"?>
<svg width="173px" height="63px" viewBox="0 0 173 63" version="1.1" xmlns="http://www.w3.org/2000/svg" xmlns:xlink="http://www.w3.org/1999/xlink">
    <!-- Generator: Sketch 42 (36781) - http://www.bohemiancoding.com/sketch -->
    <title>icon_dark</title>
    <desc>Created with Sketch.</desc>
    <defs></defs>
    <g id="Page-1" stroke="none" stroke-width="1" fill="none" fill-rule="evenodd">
        <g id="icon_dark" fill="#525050">
            <path d="M32.352,58.176 C31.285328,57.4719965 30.485336,56.5973386 29.952,55.552 C29.418664,54.5066614 28.8746694,53.1520083 28.32,51.488 C26.3999904,52.0853363 24.4160102,52.384 22.368,52.384 C18.7839821,52.384 15.9786768,51.3600102 13.952,49.312 C11.9253232,47.2639898 10.912,44.0000224 10.912,39.52 C10.912,35.7226477 11.5946598,31.4560237 12.96,26.72 C14.3253402,21.9839763 16.3199869,17.9306835 18.944,14.56 C21.5680131,11.1893165 24.6719821,9.504 28.256,9.504 C29.5360064,9.504 30.6453286,9.67466496 31.584,10.016 C29.7066573,11.1253389 27.9040086,13.4079827 26.176,16.864 C24.4479914,20.3200173 23.050672,24.181312 21.984,28.448 C20.917328,32.714688 20.384,36.4906502 20.384,39.776 L20.384,40.928 C20.384,41.653337 20.4266662,42.186665 20.512,42.528 C22.0480077,42.1439981 23.3706611,41.952 24.48,41.952 C26.4000096,41.952 28.1066592,42.5279942 29.6,43.68 C31.7760109,40.8639859 33.6319923,37.0346909 35.168,32.192 C36.7040077,27.3493091 37.472,22.6666893 37.472,18.144 C37.472,15.4986534 37.2480022,13.376008 36.8,11.776 C36.3519978,10.175992 35.5306726,8.97067072 34.336,8.16 C33.1413274,7.34932928 31.4560109,6.944 29.28,6.944 C25.9946502,6.944 22.9440141,7.61599328 20.128,8.96 C17.3119859,10.3040067 15.0613418,12.2239875 13.376,14.72 C11.6906582,17.2160125 10.848,20.1066502 10.848,23.392 C10.848,24.5440058 10.9546656,25.386664 11.168,25.92 C11.3813344,26.453336 11.488,26.7626662 11.488,26.848 C9.354656,26.848 7.74400544,26.4213376 6.656,25.568 C5.56799456,24.7146624 5.024,23.3493427 5.024,21.472 C5.024,18.5279853 6.22932128,15.7120134 8.64,13.024 C11.0506787,10.3359866 14.2506467,8.16000832 18.24,6.496 C22.2293533,4.83199168 26.4213114,4 30.816,4 C36.14936,4 40.0106547,5.45065216 42.4,8.352 C44.7893453,11.2533478 45.984,15.2639744 45.984,20.384 C45.984,23.5413491 45.5360045,26.9226486 44.64,30.528 C43.7439955,34.1333514 42.3786758,37.5573171 40.544,40.8 C38.7093242,44.0426829 36.4480134,46.6666566 33.76,48.672 C34.8693389,50.3360083 36.0213274,51.6159955 37.216,52.512 C38.4106726,53.4080045 39.9253242,53.856 41.76,53.856 C42.0160013,53.856 42.4853299,53.8133338 43.168,53.728 C42.3573293,55.8186771 41.4293386,57.2586627 40.384,58.048 C39.3386614,58.8373373 38.0693408,59.232 36.576,59.232 C34.8266579,59.232 33.418672,58.8800035 32.352,58.176 Z M26.528,46.496 C25.6746624,45.0453261 24.4586746,44.32 22.88,44.32 C22.1973299,44.32 21.5786694,44.4053325 21.024,44.576 C21.6213363,46.3253421 22.6453261,47.2 24.096,47.2 C25.0346714,47.2 25.8453299,46.9653357 26.528,46.496 Z M132.25885,42.5508654 C132.25695,42.4375848 132.256,42.3232963 132.256,42.208 C132.256,39.2639853 132.831994,36.021351 133.984,32.48 C135.136006,28.938649 137.01332,25.8773462 139.616,23.296 C142.21868,20.7146538 145.525313,19.424 149.536,19.424 C154.229357,19.424 156.576,21.4719795 156.576,25.568 C156.576,27.9573453 155.89334,30.1546566 154.528,32.16 C153.16266,34.1653434 151.349345,35.7759939 149.088,36.992 C146.826655,38.2080061 144.416013,38.9013325 141.856,39.072 C141.770666,40.0106714 141.728,40.650665 141.728,40.992 C141.728,44.533351 143.050653,46.304 145.696,46.304 C146.890673,46.304 148.17066,45.9840032 149.536,45.344 C150.90134,44.7039968 152.138661,43.8933382 153.248,42.912 C152.095994,49.2266982 148.405364,52.384 142.176,52.384 C139.061318,52.384 136.629342,51.5626749 134.88,49.92 C134.047177,49.1379587 133.412601,48.1455937 132.97627,46.9428967 C132.155096,48.2607599 131.285674,49.2744582 130.368,49.984 C128.298656,51.584008 126.154678,52.384 123.936,52.384 C121.33332,52.384 119.424006,51.6906736 118.208,50.304 C116.991994,48.9173264 116.384,47.2000102 116.384,45.152 C116.384,44.2559955 116.490666,43.2426723 116.704,42.112 C116.917334,40.9813277 117.141332,39.882672 117.376,38.816 C117.610668,37.749328 117.770666,37.0666682 117.856,36.768 C118.197335,35.2746592 118.517332,33.8026739 118.816,32.352 C119.114668,30.9013261 119.264,29.7280045 119.264,28.832 C119.264,26.6559891 118.496008,25.568 116.96,25.568 C115.850661,25.568 114.869338,26.1119946 114.016,27.2 C113.162662,28.2880054 112.480003,29.7066579 111.968,31.456 L107.616,52 L98.4,52 L103.072,29.92 C103.200001,29.4079974 103.264,28.8746694 103.264,28.32 C103.264,26.4426573 102.624006,25.504 101.344,25.504 C100.149327,25.504 99.114671,26.0479946 98.24,27.136 C97.365329,28.2240054 96.6720026,29.663991 96.16,31.456 L91.808,52 L82.592,52 L89.376,20 L98.592,20 L97.888,23.328 C100.064011,20.8959878 102.666652,19.68 105.696,19.68 C109.450685,19.68 111.647997,21.5146483 112.288,25.184 C114.634678,21.5573152 117.599982,19.744 121.184,19.744 C123.360011,19.744 125.087994,20.3413274 126.368,21.536 C127.648006,22.7306726 128.288,24.5439878 128.288,26.976 C128.288,28.2133395 128.138668,29.5893258 127.84,31.104 C127.541332,32.6186742 127.114669,34.4639891 126.56,36.64 C126.218665,37.9626733 125.909335,39.253327 125.632,40.512 C125.354665,41.770673 125.216,42.762663 125.216,43.488 C125.216,44.3413376 125.407998,45.0026643 125.792,45.472 C126.176002,45.9413357 126.837329,46.176 127.776,46.176 C129.056006,46.176 130.079996,45.7173379 130.848,44.8 C131.318286,44.2382698 131.788567,43.4885615 132.25885,42.5508654 Z M69.472,48.8 C69.472,47.8613286 69.6106653,46.7840061 69.888,45.568 C70.1653347,44.3519939 70.5599974,42.7840096 71.072,40.864 C71.6693363,38.8586566 72.1173318,37.152007 72.416,35.744 C72.7146682,34.335993 72.864,33.0773389 72.864,31.968 C72.864,29.0666522 71.5840128,27.616 69.024,27.616 C68.3413299,27.616 67.637337,27.7013325 66.912,27.872 L61.792,52 L52.576,52 L61.28,11.296 L70.752,10.016 L67.616,24.8 L68.128,24.8 C69.7920083,24.8 71.327993,24.2240058 72.736,23.072 C74.144007,21.9199942 75.2426627,20.4800086 76.032,18.752 C76.8213373,17.0239914 77.216,15.3280083 77.216,13.664 C77.216,11.7013235 76.6293392,10.090673 75.456,8.832 C74.2826608,7.57332704 72.5226784,6.944 70.176,6.944 C66.7199827,6.944 63.6906797,7.56266048 61.088,8.8 C58.4853203,10.0373395 56.4693405,11.8293216 55.04,14.176 C53.6106595,16.5226784 52.896,19.295984 52.896,22.496 C52.896,24.0746746 53.0453318,25.1733302 53.344,25.792 C53.6426682,26.4106698 53.792,26.7626662 53.792,26.848 C51.4879885,26.848 49.7706723,26.3680048 48.64,25.408 C47.5093277,24.4479952 46.944,22.8586778 46.944,20.64 C46.944,17.9093197 48.0639888,15.2533462 50.304,12.672 C52.5440112,10.0906538 55.4133158,8.000008 58.912,6.4 C62.4106842,4.799992 65.9093158,4 69.408,4 C72.608016,4 75.2959891,4.46932864 77.472,5.408 C79.6480109,6.34667136 81.269328,7.59465888 82.336,9.152 C83.402672,10.7093411 83.936,12.4053242 83.936,14.24 C83.936,16.2453434 83.3173395,18.2506566 82.08,20.256 C80.8426605,22.2613434 79.157344,23.9039936 77.024,25.184 C78.6453414,25.6533357 79.7866634,26.4319946 80.448,27.52 C81.1093366,28.6080054 81.44,29.9626586 81.44,31.584 C81.44,32.8213395 81.2906682,34.1333264 80.992,35.52 C80.6933318,36.9066736 80.2666694,38.6239898 79.712,40.672 C79.370665,41.9946733 79.0506682,43.2959936 78.752,44.576 C78.4533318,45.8560064 78.304,46.9226624 78.304,47.776 C78.304,48.7573382 78.5279978,49.6319962 78.976,50.4 C79.4240022,51.1680038 80.0319962,51.7013318 80.8,52 C78.1973203,52.725337 76.0853414,53.088 74.464,53.088 C71.1359834,53.088 69.472,51.658681 69.472,48.8 Z M146.88,34.4 C148.30934,33.3759949 149.461329,32.064008 150.336,30.464 C151.210671,28.863992 151.648,27.1893421 151.648,25.44 C151.648,23.6906579 151.114672,22.816 150.048,22.816 C148.554659,22.816 147.072007,24.1706531 145.6,26.88 C144.127993,29.5893469 143.029337,32.6293165 142.304,36 C143.925341,35.9573331 145.45066,35.4240051 146.88,34.4 Z M160.032,50.784 C159.050662,49.8026618 158.56,48.608007 158.56,47.2 C158.56,45.791993 159.050662,44.5866717 160.032,43.584 C161.013338,42.5813283 162.207993,42.08 163.616,42.08 C165.024007,42.08 166.229328,42.5813283 167.232,43.584 C168.234672,44.5866717 168.736,45.791993 168.736,47.2 C168.736,48.608007 168.234672,49.8026618 167.232,50.784 C166.229328,51.7653382 165.024007,52.256 163.616,52.256 C162.207993,52.256 161.013338,51.7653382 160.032,50.784 Z" id="QRme."></path>
        </g>
    </g>
</svg>