<?xml version="1.0" encoding="UTF-8"?>
<svg width="173px" height="63px" viewBox="0 0 173 63" version="1.1" xmlns="http://www.w3.org/2000/svg" xmlns:xlink="http://www.w3.org/1999/xlink">
    <!-- Generator: Sketch 42 (36781) - http://www.bohemiancoding.com/sketch -->
    <title>icon_color</title>
    <desc>Created with Sketch.</desc>
    <defs></defs>
    <g id="Page-1" stroke="none" stroke-width="1" fill="none" fill-rule="evenodd">
        <g id="icon_color">
            <path d="M32.352,58.176 C31.285328,57.4719965 30.485336,56.5973386 29.952,55.552 C29.418664,54.5066614 28.8746694,53.1520083 28.32,51.488 C26.3999904,52.0853363 24.4160102,52.384 22.368,52.384 C18.7839821,52.384 15.9786768,51.3600102 13.952,49.312 C11.9253232,47.2639898 10.912,44.0000224 10.912,39.52 C10.912,35.7226477 11.5946598,31.4560237 12.96,26.72 C14.3253402,21.9839763 16.3199869,17.9306835 18.944,14.56 C21.5680131,11.1893165 24.6719821,9.504 28.256,9.504 C29.5360064,9.504 30.6453286,9.67466496 31.584,10.016 C29.7066573,11.1253389 27.9040086,13.4079827 26.176,16.864 C24.4479914,20.3200173 23.050672,24.181312 21.984,28.448 C20.917328,32.714688 20.384,36.4906502 20.384,39.776 L20.384,40.928 C20.384,41.653337 20.4266662,42.186665 20.512,42.528 C22.0480077,42.1439981 23.3706611,41.952 24.48,41.952 C26.4000096,41.952 28.1066592,42.5279942 29.6,43.68 C31.7760109,40.8639859 33.6319923,37.0346909 35.168,32.192 C36.7040077,27.3493091 37.472,22.6666893 37.472,18.144 C37.472,15.4986534 37.2480022,13.376008 36.8,11.776 C36.3519978,10.175992 35.5306726,8.97067072 34.336,8.16 C33.1413274,7.34932928 31.4560109,6.944 29.28,6.944 C25.9946502,6.944 22.9440141,7.61599328 20.128,8.96 C17.3119859,10.3040067 15.0613418,12.2239875 13.376,14.72 C11.6906582,17.2160125 10.848,20.1066502 10.848,23.392 C10.848,24.5440058 10.9546656,25.386664 11.168,25.92 C11.3813344,26.453336 11.488,26.7626662 11.488,26.848 C9.354656,26.848 7.74400544,26.4213376 6.656,25.568 C5.56799456,24.7146624 5.024,23.3493427 5.024,21.472 C5.024,18.5279853 6.22932128,15.7120134 8.64,13.024 C11.0506787,10.3359866 14.2506467,8.16000832 18.24,6.496 C22.2293533,4.83199168 26.4213114,4 30.816,4 C36.14936,4 40.0106547,5.45065216 42.4,8.352 C44.7893453,11.2533478 45.984,15.2639744 45.984,20.384 C45.984,23.5413491 45.5360045,26.9226486 44.64,30.528 C43.7439955,34.1333514 42.3786758,37.5573171 40.544,40.8 C38.7093242,44.0426829 36.4480134,46.6666566 33.76,48.672 C34.8693389,50.3360083 36.0213274,51.6159955 37.216,52.512 C38.4106726,53.4080045 39.9253242,53.856 41.76,53.856 C42.0160013,53.856 42.4853299,53.8133338 43.168,53.728 C42.3573293,55.8186771 41.4293386,57.2586627 40.384,58.048 C39.3386614,58.8373373 38.0693408,59.232 36.576,59.232 C34.8266579,59.232 33.418672,58.8800035 32.352,58.176 Z M26.528,46.496 C25.6746624,45.0453261 24.4586746,44.32 22.88,44.32 C22.1973299,44.32 21.5786694,44.4053325 21.024,44.576 C21.6213363,46.3253421 22.6453261,47.2 24.096,47.2 C25.0346714,47.2 25.8453299,46.9653357 26.528,46.496 Z M69.472,48.8 C69.472,47.8613286 69.6106653,46.7840061 69.888,45.568 C70.1653347,44.3519939 70.5599974,42.7840096 71.072,40.864 C71.6693363,38.8586566 72.1173318,37.152007 72.416,35.744 C72.7146682,34.335993 72.864,33.0773389 72.864,31.968 C72.864,29.0666522 71.5840128,27.616 69.024,27.616 C68.3413299,27.616 67.637337,27.7013325 66.912,27.872 L61.792,52 L52.576,52 L61.28,11.296 L70.752,10.016 L67.616,24.8 L68.128,24.8 C69.7920083,24.8 71.327993,24.2240058 72.736,23.072 C74.144007,21.9199942 75.2426627,20.4800086 76.032,18.752 C76.8213373,17.0239914 77.216,15.3280083 77.216,13.664 C77.216,11.7013235 76.6293392,10.090673 75.456,8.832 C74.2826608,7.57332704 72.5226784,6.944 70.176,6.944 C66.7199827,6.944 63.6906797,7.56266048 61.088,8.8 C58.4853203,10.0373395 56.4693405,11.8293216 55.04,14.176 C53.6106595,16.5226784 52.896,19.295984 52.896,22.496 C52.896,24.0746746 53.0453318,25.1733302 53.344,25.792 C53.6426682,26.4106698 53.792,26.7626662 53.792,26.848 C51.4879885,26.848 49.7706723,26.3680048 48.64,25.408 C47.5093277,24.4479952 46.944,22.8586778 46.944,20.64 C46.944,17.9093197 48.0639888,15.2533462 50.304,12.672 C52.5440112,10.0906538 55.4133158,8.000008 58.912,6.4 C62.4106842,4.799992 65.9093158,4 69.408,4 C72.608016,4 75.2959891,4.46932864 77.472,5.408 C79.6480109,6.34667136 81.269328,7.59465888 82.336,9.152 C83.402672,10.7093411 83.936,12.4053242 83.936,14.24 C83.936,16.2453434 83.3173395,18.2506566 82.08,20.256 C80.8426605,22.2613434 79.157344,23.9039936 77.024,25.184 C78.6453414,25.6533357 79.7866634,26.4319946 80.448,27.52 C81.1093366,28.6080054 81.44,29.9626586 81.44,31.584 C81.44,32.8213395 81.2906682,34.1333264 80.992,35.52 C80.6933318,36.9066736 80.2666694,38.6239898 79.712,40.672 C79.370665,41.9946733 79.0506682,43.2959936 78.752,44.576 C78.4533318,45.8560064 78.304,46.9226624 78.304,47.776 C78.304,48.7573382 78.5279978,49.6319962 78.976,50.4 C79.4240022,51.1680038 80.0319962,51.7013318 80.8,52 C78.1973203,52.725337 76.0853414,53.088 74.464,53.088 C71.1359834,53.088 69.472,51.658681 69.472,48.8 Z" id="QR" fill="#524F4F"></path>
            <path d="M132.23485,42.5508654 C131.764567,43.4885615 131.294286,44.2382698 130.824,44.8 C130.055996,45.7173379 129.032006,46.176 127.752,46.176 C126.813329,46.176 126.152002,45.9413357 125.768,45.472 C125.383998,45.0026643 125.192,44.3413376 125.192,43.488 C125.192,42.762663 125.330665,41.770673 125.608,40.512 C125.885335,39.253327 126.194665,37.9626733 126.536,36.64 C127.090669,34.4639891 127.517332,32.6186742 127.816,31.104 C128.114668,29.5893258 128.264,28.2133395 128.264,26.976 C128.264,24.5439878 127.624006,22.7306726 126.344,21.536 C125.063994,20.3413274 123.336011,19.744 121.16,19.744 C117.575982,19.744 114.610678,21.5573152 112.264,25.184 C111.623997,21.5146483 109.426685,19.68 105.672,19.68 C102.642652,19.68 100.040011,20.8959878 97.864,23.328 L98.568,20 L89.352,20 L82.568,52 L91.784,52 L96.136,31.456 C96.6480026,29.663991 97.341329,28.2240054 98.216,27.136 C99.090671,26.0479946 100.125327,25.504 101.32,25.504 C102.600006,25.504 103.24,26.4426573 103.24,28.32 C103.24,28.8746694 103.176001,29.4079974 103.048,29.92 L98.376,52 L107.592,52 L111.944,31.456 C112.456003,29.7066579 113.138662,28.2880054 113.992,27.2 C114.845338,26.1119946 115.826661,25.568 116.936,25.568 C118.472008,25.568 119.24,26.6559891 119.24,28.832 C119.24,29.7280045 119.090668,30.9013261 118.792,32.352 C118.493332,33.8026739 118.173335,35.2746592 117.832,36.768 C117.746666,37.0666682 117.586668,37.749328 117.352,38.816 C117.117332,39.882672 116.893334,40.9813277 116.68,42.112 C116.466666,43.2426723 116.36,44.2559955 116.36,45.152 C116.36,47.2000102 116.967994,48.9173264 118.184,50.304 C119.400006,51.6906736 121.30932,52.384 123.912,52.384 C126.130678,52.384 128.274656,51.584008 130.344,49.984 C131.261674,49.2744582 132.131096,48.2607599 132.95227,46.9428967 C133.388601,48.1455937 134.023177,49.1379587 134.856,49.92 C136.605342,51.5626749 139.037318,52.384 142.152,52.384 C148.381364,52.384 152.071994,49.2266982 153.224,42.912 C152.114661,43.8933382 150.87734,44.7039968 149.512,45.344 C148.14666,45.9840032 146.866673,46.304 145.672,46.304 C143.026653,46.304 141.704,44.533351 141.704,40.992 C141.704,40.650665 141.746666,40.0106714 141.832,39.072 C144.392013,38.9013325 146.802655,38.2080061 149.064,36.992 C151.325345,35.7759939 153.13866,34.1653434 154.504,32.16 C155.86934,30.1546566 156.552,27.9573453 156.552,25.568 C156.552,21.4719795 154.205357,19.424 149.512,19.424 C145.501313,19.424 142.19468,20.7146538 139.592,23.296 C136.98932,25.8773462 135.112006,28.938649 133.96,32.48 C132.807994,36.021351 132.232,39.2639853 132.232,42.208 C132.232,42.3232963 132.23295,42.4375848 132.23485,42.5508654 Z M146.856,34.4 C148.28534,33.3759949 149.437329,32.064008 150.312,30.464 C151.186671,28.863992 151.624,27.1893421 151.624,25.44 C151.624,23.6906579 151.090672,22.816 150.024,22.816 C148.530659,22.816 147.048007,24.1706531 145.576,26.88 C144.103993,29.5893469 143.005337,32.6293165 142.28,36 C143.901341,35.9573331 145.42666,35.4240051 146.856,34.4 Z M160.008,50.784 C159.026662,49.8026618 158.536,48.608007 158.536,47.2 C158.536,45.791993 159.026662,44.5866717 160.008,43.584 C160.989338,42.5813283 162.183993,42.08 163.592,42.08 C165.000007,42.08 166.205328,42.5813283 167.208,43.584 C168.210672,44.5866717 168.712,45.791993 168.712,47.2 C168.712,48.608007 168.210672,49.8026618 167.208,50.784 C166.205328,51.7653382 165.000007,52.256 163.592,52.256 C162.183993,52.256 160.989338,51.7653382 160.008,50.784 Z" id="me." fill="#DC0FF2"></path>
        </g>
    </g>
</svg>